<?xml version="1.0" encoding="iso-8859-1"?>
<!-- Generator: Adobe Illustrator 19.0.0, SVG Export Plug-In . SVG Version: 6.00 Build 0)  -->
<svg version="1.1" id="Layer_1" xmlns="http://www.w3.org/2000/svg" xmlns:xlink="http://www.w3.org/1999/xlink" x="0px" y="0px"
	 viewBox="0 0 512.002 512.002" style="enable-background:new 0 0 512.002 512.002;" xml:space="preserve">
<g>
	<g>
		<path d="M244.524,242.662c-63.608,0-115.357,51.75-115.357,115.357c0,63.608,51.75,115.358,115.357,115.358
			c63.608,0,115.358-51.75,115.358-115.358C359.882,294.412,308.132,242.662,244.524,242.662z M244.524,456.171
			c-54.121,0-98.15-44.031-98.15-98.151s44.031-98.15,98.15-98.15c54.121,0,98.151,44.031,98.151,98.15
			C342.675,412.141,298.644,456.171,244.524,456.171z"/>
	</g>
</g>
<g>
	<g>
		<path d="M138.679,38.257H82.244V16.255c0-4.751-3.852-8.603-8.603-8.603c-4.751,0-8.603,3.852-8.603,8.603v22.003H8.603
			C3.852,38.257,0,42.109,0,46.861s3.852,8.603,8.603,8.603h130.075c4.751,0,8.603-3.852,8.603-8.603S143.43,38.257,138.679,38.257z
			"/>
	</g>
</g>
<g>
	<g>
		<path d="M503.397,68.863h-79.389V51.962c0-4.751-3.852-8.603-8.603-8.603c-4.751,0-8.603,3.852-8.603,8.603v16.902h-79.388
			c-4.751,0-8.603,3.852-8.603,8.603s3.852,8.603,8.603,8.603h79.388v78.586l-77.16,11.095v-9.017c0-4.751-3.852-8.603-8.603-8.603
			H168.008c-4.751,0-8.603,3.852-8.603,8.603v9.017l-77.161-11.095V86.07h56.434c4.751,0,8.603-3.852,8.603-8.603
			c0-4.751-3.852-8.603-8.603-8.603H8.603C3.852,68.863,0,72.715,0,77.467c0,4.751,3.852,8.603,8.603,8.603h56.434v23.601H51.962
			c-4.751,0-8.603,3.852-8.603,8.603c0,4.751,3.852,8.603,8.603,8.603h13.076v35.305l-9.301-1.338
			c-2.258-0.322-4.554,0.262-6.38,1.629c-1.827,1.367-3.035,3.405-3.36,5.663l-11.247,78.262c-0.676,4.703,2.588,9.063,7.291,9.739
			l22.998,3.308v184.043l-46.173,46.174c-3.36,3.36-3.36,8.807,0,12.166c1.679,1.68,3.882,2.52,6.083,2.52s4.404-0.84,6.083-2.52
			l34.007-34.007v27.923c0,4.751,3.852,8.603,8.603,8.603c4.751,0,8.603-3.852,8.603-8.603v-27.923l34.007,34.007
			c3.36,3.36,8.807,3.36,12.166,0c3.36-3.36,3.36-8.808,0-12.166l-46.174-46.174V261.921l46.523,6.692
			c-19.156,24.744-30.574,55.764-30.574,89.406c0,45.046,20.464,85.395,52.578,112.26l-8.191,22.527
			c-1.624,4.466,0.679,9.402,5.145,11.025c0.97,0.353,1.963,0.521,2.94,0.521c3.515,0,6.815-2.172,8.086-5.666l6.456-17.754
			c22.868,14.808,50.105,23.417,79.317,23.417c29.212,0,56.449-8.609,79.317-23.417l6.456,17.754
			c1.271,3.495,4.57,5.666,8.086,5.666c0.976,0,1.97-0.167,2.94-0.521c4.466-1.624,6.769-6.56,5.145-11.025l-8.191-22.527
			c32.113-26.864,52.578-67.214,52.578-112.26c0-33.641-11.418-64.661-30.574-89.406l46.522-6.692v181.568l-46.173,46.173
			c-3.36,3.36-3.36,8.807,0,12.166c3.36,3.36,8.807,3.36,12.166,0l34.007-34.007v27.923c0,4.751,3.852,8.603,8.603,8.603
			s8.603-3.852,8.603-8.603v-27.923l34.007,34.007c1.679,1.679,3.882,2.52,6.083,2.52c2.201,0,4.404-0.84,6.083-2.52
			c3.36-3.36,3.36-8.808,0-12.166l-46.173-46.174V259.447l23-3.308c4.703-0.676,7.967-5.037,7.291-9.739l-11.249-78.262
			c-0.325-2.259-1.534-4.296-3.36-5.663c-1.826-1.367-4.122-1.95-6.38-1.629l-9.302,1.338v-35.305h13.076
			c4.751,0,8.603-3.852,8.603-8.603c0-4.751-3.852-8.603-8.603-8.603H424.01V86.07h79.389c4.751,0,8.603-3.852,8.603-8.603
			C512.002,72.715,508.148,68.863,503.397,68.863z M65.038,242.061l-12.033-1.73l8.799-61.23l3.234,0.465V242.061z M176.611,175.337
			h135.822v2.888l-25.547,3.674c-2.259,0.325-4.296,1.534-5.663,3.36c-1.367,1.826-1.954,4.122-1.629,6.38l3.632,25.257
			c-12.334-3.386-25.31-5.206-38.704-5.206c-13.395,0-26.37,1.818-38.703,5.206l3.632-25.257c0.325-2.259-0.262-4.554-1.629-6.38
			c-1.367-1.826-3.405-3.035-5.663-3.36l-25.547-3.674V175.337z M82.244,244.537v-62.498l108.951,15.666l-3.673,25.545
			c-16.843,7.151-32.073,17.376-44.999,29.958L82.244,244.537z M373.647,358.02c0,71.198-57.926,129.123-129.123,129.123
			c-71.199,0-129.122-57.924-129.122-129.123s57.924-129.122,129.122-129.122S373.647,286.822,373.647,358.02z M406.802,244.536
			l-60.278,8.672c-12.926-12.582-28.156-22.807-44.999-29.958l-3.673-25.545l108.95-15.666V244.536z M427.243,179.101l8.799,61.23
			l-12.035,1.731v-62.497L427.243,179.101z"/>
	</g>
</g>
<g>
</g>
<g>
</g>
<g>
</g>
<g>
</g>
<g>
</g>
<g>
</g>
<g>
</g>
<g>
</g>
<g>
</g>
<g>
</g>
<g>
</g>
<g>
</g>
<g>
</g>
<g>
</g>
<g>
</g>
</svg>
