<svg height="480pt" viewBox="-96 0 480 480" width="480pt" xmlns="http://www.w3.org/2000/svg"><path d="m88 16c0 8.835938-7.164062 16-16 16s-16-7.164062-16-16 7.164062-16 16-16 16 7.164062 16 16zm0 0"/><path d="m88 48c0 8.835938-7.164062 16-16 16s-16-7.164062-16-16 7.164062-16 16-16 16 7.164062 16 16zm0 0"/><path d="m88 80c0 8.835938-7.164062 16-16 16s-16-7.164062-16-16 7.164062-16 16-16 16 7.164062 16 16zm0 0"/><path d="m216 16c0 8.835938-7.164062 16-16 16s-16-7.164062-16-16 7.164062-16 16-16 16 7.164062 16 16zm0 0"/><path d="m216 48c0 8.835938-7.164062 16-16 16s-16-7.164062-16-16 7.164062-16 16-16 16 7.164062 16 16zm0 0"/><path d="m216 80c0 8.835938-7.164062 16-16 16s-16-7.164062-16-16 7.164062-16 16-16 16 7.164062 16 16zm0 0"/><path d="m184 256h16v16h-16zm0 0"/><path d="m184 288h16v16h-16zm0 0"/><path d="m195.882812 385.140625c-3.789062 2.273437-5.015624 7.1875-2.742187 10.976563l24 40c2.273437 3.789062 7.1875 5.015624 10.976563 2.742187 3.789062-2.273437 5.015624-7.1875 2.742187-10.976563l-24-40c-2.273437-3.789062-7.1875-5.015624-10.976563-2.742187zm0 0"/><path d="m4.421875 455.15625 48 24c2.789063 1.394531 6.136719 1.039062 8.574219-.910156l75.003906-60 75.003906 60c2.4375 1.949218 5.78125 2.304687 8.574219.910156l48-24c3.875-1.9375 5.503906-6.609375 3.671875-10.539062l-54.136719-116.003907 69.617188-108.289062c2.359375-3.671875 1.339843-8.558594-2.292969-10.980469l-24-16c-2.765625-1.839844-6.378906-1.785156-9.085938.144531l-50.191406 35.851563-33.160156-18.089844v-103.9375l13.65625-13.65625c1.5-1.5 2.34375-3.535156 2.34375-5.65625v-80c0-2.882812-1.550781-5.542969-4.058594-6.960938-2.507812-1.421874-5.585937-1.382812-8.058594.101563l-35.882812 21.53125-35.882812-21.53125c-2.472657-1.484375-5.550782-1.523437-8.058594-.101563-2.507813 1.417969-4.058594 4.078126-4.058594 6.960938v80c0 2.121094.84375 4.15625 2.34375 5.65625l13.65625 13.65625v103.9375l-83.832031 45.726562c-1.933594 1.054688-3.347657 2.863282-3.90625 4.992188-.558594 2.132812-.214844 4.402344.953125 6.269531l37.699218 60.316407-54.164062 116.0625c-1.832031 3.929687-.203125 8.601562 3.671875 10.539062zm99.578125-433.027344 27.882812 16.730469c2.53125 1.523437 5.699219 1.523437 8.234376 0l27.882812-16.730469v62.558594l-11.3125 11.3125h-41.375l-11.3125-11.3125zm48 89.871094v208h-32v-208zm16 224v16h-64v-16zm-96.75-4.617188c1.144531-2.457031.96875-5.324218-.464844-7.621093l-35.503906-56.804688 68.71875-37.480469v90.523438h-8c-4.417969 0-8 3.582031-8 8v32c0 4.417969 3.582031 8 8 8h80c4.417969 0 8-3.582031 8-8v-32c0-4.417969-3.582031-8-8-8h-8v-90.523438l29.898438 16.308594c2.691406 1.472656 5.984374 1.273438 8.480468-.511718l49.777344-35.554688 12.859375 8.574219-67.746094 105.382812c-1.484375 2.308594-1.679687 5.21875-.519531 7.707031l52.707031 112.945313-36.457031 18.226563-76.003906-60.800782c-2.921875-2.335937-7.070313-2.335937-9.992188 0l-76.003906 60.800782-36.457031-18.226563zm0 0"/></svg>