<?xml version="1.0" encoding="iso-8859-1"?>
<!-- Generator: Adobe Illustrator 19.0.0, SVG Export Plug-In . SVG Version: 6.00 Build 0)  -->
<svg xmlns="http://www.w3.org/2000/svg" xmlns:xlink="http://www.w3.org/1999/xlink" version="1.1" id="Capa_1" x="0px" y="0px" viewBox="0 0 511.926 511.926" style="enable-background:new 0 0 511.926 511.926;" xml:space="preserve" width="512px" height="512px">
<g>
	<g>
		<path d="M473.748,248.269c-12.16-63.198-51.188-117.99-106.941-150.137V34.134c0-18.851-15.282-34.133-34.133-34.133    s-34.133,15.282-34.133,34.133v47.399c-14.04-8.382-32.081-5.395-42.669,7.066c-0.511-0.584-0.919-1.236-1.473-1.791    c-10.885-11.021-27.886-13.192-41.192-5.26V34.134c0.02-9.056-3.584-17.743-10.008-24.125    c-9.756-9.769-24.438-12.695-37.194-7.413c-12.756,5.282-21.071,17.731-21.065,31.538v63.998    C69.48,141.775,26.581,225.575,35.3,312.31c8.719,86.735,67.438,160.32,150.076,188.07c82.638,27.75,173.868,4.519,233.169-59.375    c3.76-4.05,7.304-8.254,10.727-12.536c0.325-0.341,0.621-0.709,0.885-1.098C470,376.83,485.908,311.467,473.748,248.269z     M264.407,110.934c0.009-9.422,7.645-17.057,17.067-17.067c9.418,0.018,17.049,7.648,17.067,17.067v76.8    c-0.009,9.422-7.645,17.057-17.067,17.067c-1.491-0.022-2.974-0.241-4.407-0.653c4.422-7.696,5.573-16.845,3.193-25.397    c-2.38-8.552-8.09-15.791-15.852-20.097V110.934z M213.207,110.934c0.009-9.422,7.645-17.057,17.067-17.067    c9.418,0.018,17.049,7.648,17.067,17.067v42.8c-0.488-0.019-0.95-0.133-1.442-0.133h-32.692V110.934z M162.007,34.134    c0.009-9.422,7.645-17.057,17.067-17.067c9.418,0.018,17.049,7.648,17.067,17.067v119.467h-8.533    c-9.262,0.032-18.257,3.107-25.6,8.752V34.134z M162.007,196.268c0.015-14.132,11.468-25.585,25.6-25.6h58.292    c2.259,0.006,4.5,0.408,6.621,1.186c0.065,0.028,0.138,0.03,0.203,0.056c6.37,2.194,10.903,7.865,11.638,14.561    c0.342,4.731-1.297,9.391-4.524,12.866c-3.227,3.476-7.754,5.454-12.497,5.463h-34.133c-4.713,0-8.533,3.821-8.533,8.533    c0,3.479-6.65,8.533-17.067,8.533c-4.713,0-8.533,3.82-8.533,8.533s3.82,8.533,8.533,8.533    c13.084,0.908,25.542-5.714,32.109-17.067h27.624c5.983-0.032,11.849-1.653,17-4.696c10.536,6.197,23.587,6.266,34.187,0.179    s17.12-17.393,17.079-29.616v-153.6c0-9.426,7.641-17.067,17.067-17.067s17.067,7.641,17.067,17.067v179.2    c-0.052,47.107-38.227,85.281-85.333,85.333h-17.067c-47.107-0.052-85.281-38.227-85.333-85.333V196.268z M307.074,306.301v35.033    h-102.4v-35.033c13.37,6.201,27.929,9.42,42.667,9.433h17.067C279.145,315.721,293.704,312.502,307.074,306.301z M187.607,483.156    c-31.253-11.016-59.359-29.466-81.896-53.759C64.527,384.993,45.11,324.636,52.68,264.548    c7.57-60.088,41.35-113.743,92.261-146.545v95.331c0.029,32.923,15.911,63.817,42.667,83.002v44.998    c-9.422,0.009-17.057,7.645-17.067,17.067v34.133c0.009,9.422,7.645,17.057,17.067,17.067V483.156z M187.607,358.401h136.533    l0.012,34.071l-0.012,0.062H187.607V358.401z M307.074,488.335c-33.566,8.8-68.834,8.799-102.4-0.001v-78.733h102.4V488.335z     M406.036,429.397c-11.602,12.526-24.738,23.54-39.096,32.779c-13.393,8.651-27.759,15.694-42.8,20.982v-73.557    c6.07-0.019,11.669-3.271,14.693-8.533h25.508l42.84,26.974C406.781,428.48,406.441,428.961,406.036,429.397z M341.207,384.001    v-17.067h17.067v17.067H341.207z M418.297,414.882l-34.735-21.88l13.711-7.602l28.881,18.236    C423.617,407.434,421.097,411.243,418.297,414.882z M375.341,378.047v-14.704l38.367-22.008l7.529,11.267L375.341,378.047z     M434.963,389.13l-20.705-13.147l15.244-8.452l0.004-0.004c4.168-2.313,7.178-6.263,8.302-10.895    c1.124-4.632,0.259-9.523-2.385-13.488l-7.517-11.275c-4.998-7.44-14.886-9.769-22.679-5.342l-40.691,23.342h-25.704    c-3.024-5.262-8.624-8.514-14.693-8.533v-44.998c26.756-19.184,42.637-50.079,42.667-83.002v-95.331    c58.544,37.663,93.911,102.519,93.867,172.131C460.648,324.78,451.8,358.849,434.963,389.13z" fill="#FFFFFF"/>
	</g>
</g>
<g>
</g>
<g>
</g>
<g>
</g>
<g>
</g>
<g>
</g>
<g>
</g>
<g>
</g>
<g>
</g>
<g>
</g>
<g>
</g>
<g>
</g>
<g>
</g>
<g>
</g>
<g>
</g>
<g>
</g>
</svg>
