<?xml version="1.0" encoding="iso-8859-1"?>
<!-- Generator: Adobe Illustrator 19.0.0, SVG Export Plug-In . SVG Version: 6.00 Build 0)  -->
<svg xmlns="http://www.w3.org/2000/svg" xmlns:xlink="http://www.w3.org/1999/xlink" version="1.1" id="Capa_1" x="0px" y="0px" viewBox="0 0 512 512" style="enable-background:new 0 0 512 512;" xml:space="preserve" width="512px" height="512px">
<g>
	<g>
		<g>
			<path d="M246.858,320c-15.791-0.015-31.389-3.463-45.714-10.107v37.536h109.714v-37.536     c-14.325,6.644-29.924,10.093-45.714,10.107H246.858z" fill="#7f51ff"/>
			<polygon points="329.157,402.219 329.144,365.714 182.858,365.714 182.858,402.286 329.144,402.286    " fill="#7f51ff"/>
			<path d="M164.572,402.286v-36.571c0.01-10.095,8.191-18.276,18.286-18.286v-48.213c-28.667-20.555-45.683-53.656-45.714-88.93     V108.145c-54.548,35.145-90.74,92.632-98.851,157.012c-8.111,64.38,12.693,129.048,56.82,176.624     c24.147,26.029,54.26,45.796,87.746,57.599v-78.809C172.763,420.561,164.582,412.38,164.572,402.286z" fill="#7f51ff"/>
			<path d="M246.858,301.714h18.286c50.471-0.056,91.372-40.957,91.429-91.429v-192C356.572,8.187,348.385,0,338.286,0     s-18.286,8.187-18.286,18.286v164.571c0.044,13.097-6.942,25.21-18.299,31.732c-11.358,6.521-25.341,6.448-36.629-0.192     c-5.519,3.261-11.804,4.997-18.214,5.032H217.26c-7.036,12.164-20.384,19.259-34.402,18.286c-5.049,0-9.143-4.093-9.143-9.143     c0-5.049,4.093-9.143,9.143-9.143c11.161,0,18.286-5.415,18.286-9.143c0-5.049,4.093-9.143,9.143-9.143h36.571     c5.082-0.009,9.931-2.13,13.389-5.853c3.458-3.724,5.214-8.717,4.847-13.785c-0.789-7.175-5.645-13.251-12.47-15.602     c-0.07-0.028-0.148-0.031-0.218-0.06c-2.272-0.834-4.673-1.264-7.094-1.271h-62.455c-15.142,0.017-27.412,12.287-27.429,27.429     v18.286C155.485,260.757,196.387,301.658,246.858,301.714z" fill="#7f51ff"/>
			<path d="M192.001,146.286v-128C191.981,8.195,183.806,0.019,173.715,0c-10.095,0.01-18.276,8.191-18.286,18.286v137.377     c7.868-6.047,17.505-9.342,27.429-9.377H192.001z" fill="#7f51ff"/>
			<path d="M282.128,173.233c2.55,9.162,1.317,18.965-3.421,27.211c1.536,0.441,3.124,0.676,4.722,0.699     c10.095-0.01,18.276-8.191,18.286-18.286v-82.286c-0.019-10.091-8.195-18.266-18.286-18.286     c-10.095,0.01-18.276,8.191-18.286,18.286V151.7C273.46,156.314,279.579,164.07,282.128,173.233z" fill="#7f51ff"/>
			<path d="M246.858,146.429v-45.857c-0.019-10.091-8.195-18.266-18.286-18.286c-10.095,0.01-18.276,8.191-18.286,18.286v45.714     h35.027C245.841,146.286,246.336,146.408,246.858,146.429z" fill="#7f51ff"/>
			<polygon points="425.108,347.429 384.001,371.009 384.001,386.763 433.175,359.5    " fill="#7f51ff"/>
			<path d="M392.809,402.786l37.216,23.443c3-3.898,5.7-7.98,8.418-12.05L407.5,394.641L392.809,402.786z" fill="#7f51ff"/>
			<path d="M374.858,108.145v102.141c-0.032,35.275-17.047,68.376-45.714,88.93v48.213c6.503,0.02,12.502,3.505,15.743,9.143h27.54     l43.597-25.009c8.35-4.743,18.944-2.248,24.299,5.723l8.054,12.08c2.833,4.249,3.76,9.489,2.556,14.452s-4.43,9.196-8.895,11.673     l-0.004,0.004l-16.333,9.056l22.184,14.086c18.039-32.443,27.519-68.945,27.547-106.066     C475.477,217.986,437.584,148.498,374.858,108.145z" fill="#7f51ff"/>
			<path d="M201.144,504.928c35.964,9.429,73.75,9.429,109.714,0.001v-84.358H201.144V504.928z" fill="#7f51ff"/>
			<path d="M344.886,411.429c-3.24,5.638-9.24,9.123-15.743,9.143v78.811c16.116-5.666,31.508-13.212,45.857-22.481     c15.384-9.9,29.457-21.7,41.888-35.121c0.434-0.467,0.797-0.982,1.227-1.452l-45.9-28.901H344.886z" fill="#7f51ff"/>
			<rect x="347.429" y="374.857" width="18.286" height="18.286" fill="#7f51ff"/>
		</g>
	</g>
</g>
<g>
</g>
<g>
</g>
<g>
</g>
<g>
</g>
<g>
</g>
<g>
</g>
<g>
</g>
<g>
</g>
<g>
</g>
<g>
</g>
<g>
</g>
<g>
</g>
<g>
</g>
<g>
</g>
<g>
</g>
</svg>
