<svg height="480pt" viewBox="-68 0 480 480.1496" width="480pt" xmlns="http://www.w3.org/2000/svg"><path d="m288.074219 176.148438h-32c-30.910157.039062-55.960938 25.089843-56 56v192c-.027344 22.082031-17.917969 39.976562-40 40h-24c-19.597657-.066407-36.257813-14.320313-39.359375-33.671876 9.234375-3.5625 15.335937-12.429687 15.359375-22.328124v-8h1c12.644531-.027344 23.113281-9.835938 23.953125-22.453126l14.777344-229.007812c33.128906-34.792969 32.234374-89.726562-2.011719-123.417969-34.25-33.691406-89.1875-33.691406-123.433594 0-34.246094 33.691407-35.144531 88.625-2.011719 123.417969l14.773438 229.007812c.84375 12.617188 11.308594 22.425782 23.953125 22.453126h1v8c.046875 10.296874 6.660156 19.417968 16.433593 22.664062 3.398438 28.121094 27.242188 49.292969 55.566407 49.335938h24c30.910156-.039063 55.960937-25.085938 56-56v-192c.027343-22.078126 17.921875-39.972657 40-40h32c22.082031.027343 39.972656 17.921874 40 40v240c0 4.417968 3.582031 8 8 8s8-3.582032 8-8v-240c-.039063-30.910157-25.089844-55.960938-56-56zm-200-160c29.273437 0 55.636719 17.726562 66.679687 44.835937 11.042969 27.113281 4.574219 58.210937-16.367187 78.667969-4.289063 4.210937-9.097657 7.855468-14.3125 10.847656-22.339844 12.628906-49.660157 12.628906-72 0-5.210938-2.992188-10.023438-6.640625-14.3125-10.855469-20.933594-20.457031-27.402344-51.550781-16.355469-78.660156 11.042969-27.105469 37.398438-44.832031 66.667969-44.835937zm-32.984375 360.511718-13.808594-213.972656c.929688.574219 1.847656 1.125 2.792969 1.671875 27.226562 15.71875 60.773437 15.71875 88 0 .945312-.546875 1.878906-1.097656 2.808593-1.683594l-13.824218 213.984375c-.269532 4.21875-3.773438 7.5-8 7.488282h-50c-4.214844-.007813-7.699219-3.28125-7.96875-7.488282zm40.984375 23.488282v8c0 4.417968-3.582031 8-8 8s-8-3.582032-8-8v-8zm0 0"/><path d="m112.074219 248.148438v-32c0-13.253907-10.746094-24-24-24-13.253907 0-24 10.746093-24 24v32c0 13.257812 10.746093 24 24 24 13.253906 0 24-10.742188 24-24zm-24-40c4.417969 0 8 3.582031 8 8v8h-16v-8c0-4.417969 3.582031-8 8-8zm-8 40v-8h16v8c0 4.417968-3.582031 8-8 8s-8-3.582032-8-8zm0 0"/><path d="m88.074219 96.148438c2.128906.023437 4.175781-.8125 5.679687-2.316407 1.507813-1.507812 2.34375-3.554687 2.320313-5.683593-.027344-2.117188-.859375-4.144532-2.320313-5.679688-.378906-.339844-.78125-.660156-1.199218-.960938-.445313-.300781-.929688-.542968-1.441407-.71875-.476562-.242187-.996093-.40625-1.527343-.480468-1.023438-.238282-2.085938-.238282-3.109376 0-.503906.089844-.988281.25-1.441406.480468-.511718.175782-1 .417969-1.449218.71875-.414063.300782-.8125.621094-1.191407.960938-1.464843 1.53125-2.292969 3.5625-2.320312 5.679688-.019531 2.128906.816406 4.175781 2.320312 5.683593 1.503907 1.503907 3.550781 2.339844 5.679688 2.316407zm0 0"/><path d="m85.035156 71.589844c.96875.382812 2 .574218 3.039063.558594 2.128906.023437 4.175781-.8125 5.679687-2.316407 1.507813-1.507812 2.34375-3.554687 2.320313-5.683593 0-4.417969-3.582031-8-8-8s-8 3.582031-8 8c-.019531 2.128906.816406 4.175781 2.320312 5.679687.796875.707031 1.683594 1.296875 2.640625 1.761719zm0 0"/><path d="m109.035156 95.507812c2.460938 1.054688 5.285156.796876 7.511719-.6875 2.230469-1.484374 3.554687-3.996093 3.527344-6.671874-.027344-2.117188-.859375-4.144532-2.320313-5.679688-.378906-.339844-.78125-.660156-1.199218-.960938-.445313-.300781-.929688-.542968-1.441407-.71875-.476562-.242187-.996093-.40625-1.527343-.480468-2.34375-.480469-4.78125.125-6.628907 1.648437-1.847656 1.523438-2.90625 3.796875-2.882812 6.191407-.019531 2.128906.816406 4.175781 2.320312 5.679687.777344.707031 1.671875 1.277344 2.640625 1.679687zm0 0"/><path d="m112.074219 120.148438c2.675781.027343 5.1875-1.296876 6.671875-3.523438 1.484375-2.230469 1.742187-5.054688.6875-7.515625-.386719-.980469-.957032-1.875-1.679688-2.640625-.378906-.339844-.78125-.660156-1.199218-.960938-.445313-.300781-.929688-.542968-1.441407-.71875-.476562-.242187-.996093-.40625-1.527343-.480468-2.609376-.523438-5.308594.289062-7.199219 2.160156-.722657.765625-1.292969 1.660156-1.679688 2.640625-1.054687 2.460937-.796875 5.289063.691407 7.515625 1.488281 2.230469 4 3.554688 6.675781 3.523438zm0 0"/><path d="m112.074219 144.148438c2.675781.027343 5.1875-1.296876 6.671875-3.523438 1.484375-2.230469 1.742187-5.054688.6875-7.515625-.386719-.980469-.957032-1.875-1.679688-2.640625-.378906-.339844-.78125-.660156-1.199218-.960938-.445313-.300781-.929688-.542968-1.441407-.71875-.476562-.242187-.996093-.40625-1.527343-.480468-2.609376-.523438-5.308594.289062-7.199219 2.160156-.722657.765625-1.292969 1.660156-1.679688 2.640625-1.054687 2.460937-.796875 5.289063.691407 7.515625 1.488281 2.230469 4 3.554688 6.675781 3.523438zm0 0"/><path d="m112.074219 72.148438c2.675781.027343 5.1875-1.296876 6.671875-3.523438 1.484375-2.230469 1.742187-5.054688.6875-7.515625-.40625-.96875-.972656-1.863281-1.679688-2.640625-.378906-.339844-.78125-.660156-1.199218-.960938-.445313-.300781-.929688-.542968-1.441407-.71875-.476562-.242187-.996093-.40625-1.527343-.480468-3.738282-.820313-7.511719 1.222656-8.871094 4.800781-1.054688 2.460937-.796875 5.285156.691406 7.515625 1.484375 2.226562 3.992188 3.550781 6.667969 3.523438zm0 0"/><path d="m130.394531 93.828125c2.289063 2.292969 5.742188 2.957031 8.71875 1.679687 2.011719-.726562 3.59375-2.308593 4.320313-4.316406.410156-.964844.628906-1.996094.640625-3.042968 0-4.417969-3.582031-8-8-8s-8 3.582031-8 8c-.027344 1.050781.191406 2.09375.640625 3.042968.40625.964844.976562 1.859375 1.679687 2.636719zm0 0"/><path d="m136.074219 120.148438c1.046875-.011719 2.078125-.230469 3.039062-.640626.96875-.40625 1.863281-.972656 2.640625-1.679687 2.292969-2.289063 2.957032-5.742187 1.679688-8.71875-.40625-.96875-.972656-1.863281-1.679688-2.640625-3.207031-2.960938-8.152344-2.960938-11.359375 0-.707031.777344-1.273437 1.671875-1.679687 2.640625-.449219.949219-.667969 1.992187-.640625 3.039063-.019531 2.128906.816406 4.175781 2.320312 5.683593 1.503907 1.503907 3.550781 2.339844 5.679688 2.316407zm0 0"/><path d="m136.074219 72.148438c1.046875-.011719 2.078125-.230469 3.039062-.640626.96875-.40625 1.863281-.972656 2.640625-1.679687 1.503906-1.503906 2.339844-3.550781 2.320313-5.679687 0-4.417969-3.582031-8-8-8s-8 3.582031-8 8c-.019531 2.128906.816406 4.175781 2.320312 5.683593 1.503907 1.503907 3.550781 2.339844 5.679688 2.316407zm0 0"/><path d="m112.074219 48.148438c2.675781.027343 5.1875-1.296876 6.671875-3.523438 1.484375-2.230469 1.742187-5.054688.6875-7.515625-.386719-.980469-.957032-1.875-1.679688-2.640625-.378906-.339844-.78125-.660156-1.199218-.960938-.445313-.300781-.929688-.542968-1.441407-.71875-.476562-.242187-.996093-.40625-1.527343-.480468-2.609376-.523438-5.308594.289062-7.199219 2.160156-.722657.765625-1.292969 1.660156-1.679688 2.640625-1.054687 2.460937-.796875 5.289063.691407 7.515625 1.488281 2.230469 4 3.554688 6.675781 3.523438zm0 0"/><path d="m64.074219 96.148438c2.128906.023437 4.175781-.8125 5.679687-2.316407 1.507813-1.507812 2.34375-3.554687 2.320313-5.683593-.027344-2.117188-.859375-4.144532-2.320313-5.679688-.378906-.339844-.78125-.660156-1.199218-.960938-.445313-.300781-.929688-.542968-1.441407-.71875-.476562-.242187-.996093-.40625-1.527343-.480468-2.605469-.484375-5.289063.320312-7.199219 2.160156-1.460938 1.53125-2.289063 3.5625-2.3125 5.679688-.019531 2.128906.816406 4.175781 2.320312 5.683593 1.503907 1.503907 3.550781 2.339844 5.679688 2.316407zm0 0"/><path d="m64.074219 72.148438c2.128906.019531 4.175781-.816407 5.679687-2.320313 1.488282-1.511719 2.324219-3.554687 2.320313-5.679687 0-4.417969-3.582031-8-8-8s-8 3.582031-8 8c-.003907 2.125.828125 4.167968 2.320312 5.679687 1.503907 1.503906 3.550781 2.34375 5.679688 2.320313zm0 0"/><path d="m64.074219 48.148438c2.675781.027343 5.1875-1.296876 6.671875-3.523438 1.484375-2.230469 1.742187-5.054688.6875-7.515625-.40625-.96875-.972656-1.863281-1.679688-2.640625-.378906-.339844-.78125-.660156-1.199218-.960938-.445313-.300781-.929688-.542968-1.441407-.71875-.476562-.242187-.996093-.40625-1.527343-.480468-1.023438-.238282-2.085938-.238282-3.109376 0-.503906.089844-.988281.25-1.441406.480468-.511718.175782-1 .417969-1.449218.71875-.414063.300782-.8125.621094-1.191407.960938-.707031.777344-1.273437 1.671875-1.679687 2.640625-.449219.949219-.667969 1.992187-.640625 3.039063-.019531 2.128906.816406 4.175781 2.320312 5.683593 1.503907 1.503907 3.550781 2.339844 5.679688 2.316407zm0 0"/><path d="m82.394531 45.828125c2.289063 2.308594 5.746094 3.003906 8.75 1.757813 3-1.246094 4.949219-4.1875 4.929688-7.4375-.027344-2.117188-.859375-4.144532-2.320313-5.679688-.378906-.339844-.78125-.660156-1.199218-.960938-.445313-.300781-.929688-.542968-1.441407-.71875-.476562-.242187-.996093-.40625-1.527343-.480468-2.609376-.523438-5.308594.289062-7.199219 2.160156-1.460938 1.53125-2.289063 3.5625-2.3125 5.679688.011719 1.046874.230469 2.078124.640625 3.042968.40625.964844.976562 1.859375 1.679687 2.636719zm0 0"/><path d="m85.035156 119.507812c2.460938 1.054688 5.285156.796876 7.511719-.6875 2.230469-1.484374 3.554687-3.996093 3.527344-6.671874-.027344-2.117188-.859375-4.144532-2.320313-5.679688l-1.199218-.960938c-.445313-.300781-.929688-.542968-1.441407-.71875-.476562-.242187-.996093-.40625-1.527343-.480468-1.023438-.238282-2.085938-.238282-3.109376 0-.503906.089844-.988281.25-1.441406.480468-.511718.175782-1 .417969-1.449218.71875l-1.191407.960938c-1.464843 1.53125-2.292969 3.5625-2.320312 5.679688-.019531 2.128906.816406 4.175781 2.320312 5.679687.777344.707031 1.671875 1.277344 2.640625 1.679687zm0 0"/><path d="m64.074219 120.148438c2.128906.023437 4.175781-.8125 5.679687-2.316407 1.507813-1.507812 2.34375-3.554687 2.320313-5.683593-.027344-2.117188-.859375-4.144532-2.320313-5.679688-.378906-.339844-.78125-.660156-1.199218-.960938-.445313-.300781-.929688-.542968-1.441407-.71875-.476562-.242187-.996093-.40625-1.527343-.480468-1.023438-.238282-2.085938-.238282-3.109376 0-.503906.089844-.988281.25-1.441406.480468-.511718.175782-1 .417969-1.449218.71875-.414063.300782-.8125.621094-1.191407.960938-1.464843 1.53125-2.292969 3.5625-2.320312 5.679688-.019531 2.128906.816406 4.175781 2.320312 5.683593 1.503907 1.503907 3.550781 2.339844 5.679688 2.316407zm0 0"/><path d="m61.035156 143.589844c.96875.382812 2 .574218 3.039063.558594 2.675781.027343 5.1875-1.296876 6.671875-3.523438 1.484375-2.230469 1.742187-5.054688.6875-7.515625-.40625-.96875-.972656-1.863281-1.679688-2.640625-.378906-.339844-.78125-.660156-1.199218-.960938-.445313-.300781-.929688-.542968-1.441407-.71875-.476562-.242187-.996093-.40625-1.527343-.480468-1.023438-.238282-2.085938-.238282-3.109376 0-.503906.089844-.988281.25-1.441406.480468-.511718.175782-1 .417969-1.449218.71875-.414063.300782-.8125.621094-1.191407.960938-.707031.777344-1.273437 1.671875-1.679687 2.640625-.449219.949219-.667969 1.992187-.640625 3.039063-.019531 2.128906.816406 4.175781 2.320312 5.679687.796875.707031 1.683594 1.296875 2.640625 1.761719zm0 0"/><path d="m45.753906 117.828125c2.292969-2.289063 2.957032-5.742187 1.679688-8.71875-.40625-.96875-.972656-1.863281-1.679688-2.640625-.378906-.339844-.78125-.660156-1.199218-.960938-.445313-.300781-.929688-.542968-1.441407-.71875-.476562-.242187-.996093-.40625-1.527343-.480468-2.609376-.523438-5.308594.289062-7.199219 2.160156-.707031.777344-1.273438 1.671875-1.679688 2.640625-.445312.949219-.664062 1.992187-.632812 3.039063-.019531 2.128906.816406 4.175781 2.320312 5.679687.765625.726563 1.660157 1.292969 2.640625 1.679687 2.976563 1.277344 6.429688.613282 8.71875-1.679687zm0 0"/><path d="m37.035156 95.507812c2.976563 1.277344 6.429688.613282 8.71875-1.679687 1.488282-1.511719 2.324219-3.554687 2.320313-5.679687-.011719-1.042969-.230469-2.078126-.640625-3.039063-.40625-.96875-.972656-1.863281-1.679688-2.640625-.378906-.339844-.78125-.660156-1.199218-.960938-.445313-.300781-.929688-.542968-1.441407-.71875-.476562-.242187-.996093-.40625-1.527343-.480468-2.609376-.523438-5.308594.289062-7.199219 2.160156-1.460938 1.53125-2.289063 3.5625-2.3125 5.679688-.003907 2.125.828125 4.167968 2.320312 5.679687.765625.726563 1.660157 1.292969 2.640625 1.679687zm0 0"/><path d="m37.035156 71.507812c2.460938 1.054688 5.285156.796876 7.511719-.6875 2.230469-1.484374 3.554687-3.996093 3.527344-6.671874.027343-2.675782-1.296875-5.183594-3.527344-6.667969-2.226563-1.484375-5.050781-1.746094-7.511719-.691407-.988281.367188-1.890625.941407-2.640625 1.679688-.34375.378906-.664062.777344-.960937 1.191406-.300782.449219-.542969.9375-.71875 1.449219-.230469.453125-.394532.9375-.480469 1.441406-.089844.527344-.140625 1.0625-.160156 1.597657-.019531 2.128906.816406 4.175781 2.320312 5.679687.765625.726563 1.660157 1.292969 2.640625 1.679687zm0 0"/><path d="m82.394531 141.828125c3.15625 3.09375 8.207031 3.09375 11.359375 0 1.488282-1.511719 2.324219-3.554687 2.320313-5.679687-.011719-.535157-.066407-1.070313-.167969-1.597657-.078125-.503906-.238281-.988281-.472656-1.441406-.179688-.511719-.421875-.996094-.71875-1.449219l-.960938-1.191406c-.378906-.339844-.78125-.660156-1.199218-.960938-.445313-.300781-.929688-.542968-1.441407-.71875-.476562-.242187-.996093-.40625-1.527343-.480468-2.605469-.484375-5.289063.320312-7.199219 2.160156-1.460938 1.53125-2.289063 3.5625-2.3125 5.679688.011719 1.046874.230469 2.078124.640625 3.042968.40625.964844.976562 1.859375 1.679687 2.636719zm0 0"/></svg>